#!OML:ASF F:\VICON\USERDATA\INSTALL\rory3\rory3.ASF
:FULLY-SPECIFIED
:DEGREES
2581
root 2.46253 17.8839 1.24941 1.30765 29.1253 -14.9409
lowerback 6.94957 4.22275 -1.33343
upperback -1.74397 5.29928 -4.18896
thorax -5.43297 2.59574 -4.23193
lowerneck -25.8575 -13.7158 -10.1092
upperneck -0.374501 -16.4042 16.6756
head 6.18363 -6.751 4.72845
rclavicle -1.82882e-014 3.18055e-015
rhumerus 72.2785 -29.0345 -32.987
rradius 32.2819
rwrist 30.0167
rhand -52.6954 -13.1769
rfingers 7.12502
rthumb -25.1739 -41.5368
lclavicle -1.82882e-014 3.18055e-015
lhumerus -43.7192 14.485 54.5533
lradius 37.6879
lwrist -9.64641
lhand -18.471 23.1979
lfingers 7.12502
lthumb 7.81576 -306.967
rfemur 0.74571 -13.6286 25.4309
rtibia 7.75304
rfoot -17.7967 -21.3693
rtoes 11.1255
lfemur -22.4474 -10.3482 -0.597422
ltibia 33.8432
lfoot -18.4177 -7.59016
ltoes -18.4603
2582
root 2.46143 17.8802 1.24702 1.00706 28.9786 -15.3314
lowerback 7.17515 4.21694 -0.970919
upperback -1.74474 5.31761 -4.16803
thorax -5.52923 2.59134 -4.43392
lowerneck -25.5536 -13.6099 -9.47365
upperneck -0.749101 -16.3573 16.1107
head 5.8984 -6.79801 4.48523
rclavicle -1.82882e-014 -1.90833e-014
rhumerus 72.4058 -28.6477 -32.7472
rradius 32.3761
rwrist 31.4025
rhand -52.6106 -13.0635
rfingers 7.12502
rthumb -25.0927 -41.4348
lclavicle -1.82882e-014 -1.90833e-014
lhumerus -43.5038 14.907 54.3603
lradius 37.3904
lwrist -10.2824
lhand -18.5056 23.9595
lfingers 7.12502
lthumb 7.78235 -306.204
rfemur 0.946293 -13.5102 25.7885
rtibia 7.51931
rfoot -17.6785 -21.4468
rtoes 11.0041
lfemur -22.3491 -10.2301 -0.232526
ltibia 33.946
lfoot -18.5098 -7.53568
ltoes -18.7387
2583
root 2.46135 17.8811 1.24284 1.05895 28.9353 -15.3324
lowerback 7.20707 4.19835 -0.97132
upperback -1.74105 5.28961 -4.21402
thorax -5.54104 2.57667 -4.48161
lowerneck -25.348 -13.5589 -9.23276
upperneck -0.992503 -16.3263 15.9577
head 5.75169 -6.81342 4.42016
rclavicle -1.51076e-014 -1.27222e-014
rhumerus 72.5871 -28.3509 -32.5188
rradius 32.5318
rwrist 32.6254
rhand -52.4281 -11.7567
rfingers 7.12502
rthumb -24.9178 -40.1524
lclavicle -1.51076e-014 -1.27222e-014
lhumerus -43.4393 14.8501 54.5438
lradius 37.5822
lwrist -10.0501
lhand -18.7556 24.6977
lfingers 7.12502
lthumb 7.54105 -305.457
rfemur 0.884501 -13.4857 25.7917
rtibia 7.48885
rfoot -17.672 -21.4339
rtoes 10.9826
lfemur -22.4043 -10.1963 -0.237496
ltibia 33.9861
lfoot -18.5382 -7.4113
ltoes -19.1431
2584
root 2.46093 17.8827 1.24258 1.0874 28.9489 -15.3094
lowerback 7.20019 4.17923 -1.01531
upperback -1.73836 5.25853 -4.25209
thorax -5.53683 2.56237 -4.49292
lowerneck -25.2227 -13.5534 -9.32313
upperneck -0.979484 -16.3277 16.1227
head 5.76552 -6.80966 4.4875
rclavicle -1.27222e-014 -7.63333e-014
rhumerus 72.6396 -27.9863 -32.2114
rradius 32.6986
rwrist 33.9204
rhand -52.1456 -11.3234
rfingers 7.12502
rthumb -24.6471 -39.7562
lclavicle -1.27222e-014 -7.63333e-014
lhumerus -43.4327 14.8208 54.5982
lradius 37.7495
lwrist -9.89111
lhand -18.7751 24.6549
lfingers 7.12502
lthumb 7.5222 -305.499
rfemur 0.705942 -13.5217 25.7814
rtibia 7.81815
rfoot -17.7256 -21.3409
rtoes 10.9316
lfemur -22.4154 -10.2048 -0.257642
ltibia 33.9521
lfoot -18.468 -7.43242
ltoes -19.1632
2585
root 2.46253 17.8897 1.23887 1.52241 29.0175 -14.9342
lowerback 6.97561 4.15883 -1.31222
upperback -1.80209 5.20334 -4.40316
thorax -5.49313 2.5438 -4.46427
lowerneck -25.0652 -13.6185 -9.7034
upperneck -0.910764 -16.3892 16.6036
head 5.85981 -6.81282 4.68411
rclavicle 4.77083e-014 1.90833e-014
rhumerus 72.5284 -27.6369 -31.6155
rradius 32.8079
rwrist 35.1891
rhand -51.8246 -11.597
rfingers 7.12502
rthumb -24.3394 -40.0716
lclavicle 4.77083e-014 1.90833e-014
lhumerus -43.6091 14.484 54.6919
lradius 38.1864
lwrist -9.62665
lhand -18.4763 24.3767
lfingers 7.12502
lthumb 7.81066 -305.788
rfemur 0.198039 -13.5968 25.4689
rtibia 8.25154
rfoot -17.6178 -21.3868
rtoes 9.89723
lfemur -22.6679 -10.2659 -0.597687
ltibia 33.856
lfoot -18.4089 -7.36754
ltoes -19.3191
2586
root 2.46385 17.8942 1.23281 1.95558 29.0706 -14.4999
lowerback 6.78221 4.14058 -1.63297
upperback -1.81058 5.15099 -4.56063
thorax -5.41016 2.52803 -4.42887
lowerneck -25.0867 -13.739 -10.2734
upperneck -0.68687 -16.5038 17.2908
head 6.07657 -6.81195 4.95555
rclavicle 1.35174e-014 -1.59028e-014
rhumerus 72.4453 -27.3767 -30.9579
rradius 32.9285
rwrist 36.2236
rhand -51.6494 -11.3711
rfingers 7.12502
rthumb -24.1714 -39.8681
lclavicle 1.35174e-014 -1.59028e-014
lhumerus -43.7461 14.0619 54.9085
lradius 38.7223
lwrist -9.11461
lhand -18.2337 24.2995
lfingers 7.12502
lthumb 8.0448 -305.874
rfemur -0.323163 -13.6655 25.0819
rtibia 8.7705
rfoot -17.5992 -21.3336
rtoes 9.09142
lfemur -22.8487 -10.2971 -1.00838
ltibia 33.7289
lfoot -18.3419 -7.30041
ltoes -19.5086
2587
root 2.46359 17.8957 1.23321 1.93587 28.9993 -14.5259
lowerback 6.7782 4.13899 -1.59741
upperback -1.78223 5.15179 -4.59748
thorax -5.37151 2.5275 -4.48504
lowerneck -25.1203 -13.8016 -10.4823
upperneck -0.531887 -16.5876 17.5867
head 6.19477 -6.82474 5.05955
rclavicle -1.04958e-013 1.90833e-014
rhumerus 72.4044 -27.0641 -30.3579
rradius 33.0471
rwrist 37.2025
rhand -51.8022 -11.1141
rfingers 7.12502
rthumb -24.3179 -39.5915
lclavicle -1.04958e-013 1.90833e-014
lhumerus -43.6115 14.2068 54.855
lradius 38.6898
lwrist -9.10212
lhand -18.3737 24.6512
lfingers 7.12502
lthumb 7.90963 -305.517
rfemur -0.624062 -13.618 25.1141
rtibia 9.37266
rfoot -17.7436 -21.2541
rtoes 8.59335
lfemur -22.7403 -10.2411 -0.992129
ltibia 33.5917
lfoot -18.2423 -7.29669
ltoes -19.3108
2588
root 2.46366 17.9013 1.22935 2.20061 28.9431 -14.265
lowerback 6.67452 4.14949 -1.78536
upperback -1.7995 5.14801 -4.71915
thorax -5.33705 2.53082 -4.49989
lowerneck -25.0389 -13.846 -10.4893
upperneck -0.565577 -16.6627 17.6853
head 6.19493 -6.85983 5.08063
rclavicle 2.06736e-014 9.54166e-015
rhumerus 72.3021 -26.7434 -29.7159
rradius 33.1382
rwrist 38.2386
rhand -52.0913 -11.2129
rfingers 7.12502
rthumb -24.595 -39.6529
lclavicle 2.06736e-014 9.54166e-015
lhumerus -43.3886 14.4766 54.7331
lradius 38.4787
lwrist -9.29957
lhand -18.5823 24.8547
lfingers 7.12502
lthumb 7.70835 -305.306
rfemur -1.00426 -13.5826 24.8859
rtibia 9.80127
rfoot -17.7294 -21.3004
rtoes 7.78563
lfemur -22.8151 -10.1953 -1.24936
ltibia 33.4769
lfoot -18.1088 -7.26632
ltoes -19.1371
2589
root 2.46282 17.9073 1.22075 2.57787 28.9241 -13.9544
lowerback 6.50294 4.13564 -2.01214
upperback -1.82661 5.11186 -4.84467
thorax -5.27942 2.51972 -4.48834
lowerneck -25.0301 -13.8919 -10.4457
upperneck -0.444712 -16.7653 17.7191
head 6.24672 -6.90359 5.06376
rclavicle 7.63333e-014 1.59028e-014
rhumerus 72.1439 -26.4376 -28.9885
rradius 33.254
rwrist 39.2109
rhand -52.1468 -11.2111
rfingers 7.12502
rthumb -24.6482 -39.6438
lclavicle 7.63333e-014 1.59028e-014
lhumerus -43.2806 14.7392 54.6739
lradius 38.4483
lwrist -9.40614
lhand -18.6261 24.7031
lfingers 7.12502
lthumb 7.66603 -305.456
rfemur -1.44145 -13.5809 24.6184
rtibia 10.1087
rfoot -17.8441 -21.2295
rtoes 7.60039
lfemur -23.037 -10.1808 -1.53262
ltibia 33.39
lfoot -17.9921 -7.20739
ltoes -19.146
2590
root 2.45955 17.9079 1.21704 2.61912 28.8811 -13.9296
lowerback 6.41654 4.14873 -2.0418
upperback -1.75044 5.13406 -4.85812
thorax -5.15049 2.53345 -4.47507
lowerneck -25.0322 -13.9538 -10.5306
upperneck -0.362041 -16.8574 17.8568
head 6.30959 -6.93561 5.10062
rclavicle 1.98785e-014 -6.67916e-014
rhumerus 71.8521 -26.2259 -27.9886
rradius 33.3067
rwrist 40.5797
rhand -52.4643 -11.9166
rfingers 7.12502
rthumb -24.9525 -40.3074
lclavicle 1.98785e-014 -6.67916e-014
lhumerus -43.0539 15.0793 54.7047
lradius 38.3317
lwrist -9.57075
lhand -18.7022 24.2767
lfingers 7.12502
lthumb 7.59257 -305.88
rfemur -1.67457 -13.5285 24.6061
rtibia 10.4488
rfoot -17.9498 -21.174
rtoes 7.12417
lfemur -23.0271 -10.0979 -1.55578
ltibia 33.3134
lfoot -18.0115 -7.18917
ltoes -19.5035
2591
root 2.45644 17.9068 1.2159 2.66448 28.824 -13.8274
lowerback 6.32567 4.1927 -2.18369
upperback -1.66189 5.18962 -4.85036
thorax -5.01636 2.56721 -4.37955
lowerneck -24.8959 -14.0119 -10.7072
upperneck -0.476953 -16.9063 18.0556
head 6.2986 -6.95775 5.18599
rclavicle -1.06549e-013 -1.27222e-014
rhumerus 71.4986 -26.0327 -26.8895
rradius 33.3081
rwrist 42.5593
rhand -53.0744 -13.7224
rfingers 7.12502
rthumb -25.537 -42.0308
lclavicle -1.06549e-013 -1.27222e-014
lhumerus -42.879 15.4901 54.7396
lradius 38.198
lwrist -9.83194
lhand -18.6853 23.669
lfingers 7.12502
lthumb 7.60893 -306.488
rfemur -1.79504 -13.633 24.5137
rtibia 10.6896
rfoot -17.9129 -21.027
rtoes 7.01918
lfemur -22.9746 -10.017 -1.67415
ltibia 33.2643
lfoot -18.0652 -7.13087
ltoes -19.9557
2592
root 2.4538 17.9062 1.21285 2.72691 28.7938 -13.7727
lowerback 6.30817 4.20004 -2.17242
upperback -1.67975 5.19824 -4.91074
thorax -5.01824 2.57055 -4.44959
lowerneck -24.7137 -14.0494 -10.7237
upperneck -0.50436 -16.9843 18.1703
head 6.29023 -6.99944 5.2158
rclavicle 4.05521e-014 -3.81667e-014
rhumerus 71.0226 -25.7547 -25.8654
rradius 33.4989
rwrist 43.9421
rhand -53.5764 -13.968
rfingers 7.12502
rthumb -26.0178 -42.2067
lclavicle 4.05521e-014 -3.81667e-014
lhumerus -42.8179 15.7371 54.5841
lradius 38.0203
lwrist -10.1315
lhand -18.6442 23.166
lfingers 7.12502
lthumb 7.64853 -306.992
rfemur -1.89669 -13.6862 24.4779
rtibia 10.8178
rfoot -17.872 -20.8953
rtoes 7.26702
lfemur -23.0071 -9.99467 -1.71837
ltibia 33.2589
lfoot -18.0295 -7.11234
ltoes -19.9125
